<?xml version="1.0" encoding="UTF-8"?>
<svg id="Layer_1" xmlns="http://www.w3.org/2000/svg" viewBox="0 0 158.47 79.34">
  <defs>
    <style>
      .cls-1 {
        fill: #6bbe4a;
      }

      .cls-2 {
        fill: #09c0de;
      }

      .cls-3 {
        fill: #046169;
      }
    </style>
  </defs>
  <path class="cls-3" d="M18.69,60.66c-.16-.16-.23-.35-.23-.56s.08-.41.23-.57.34-.23.56-.23.42.08.58.23c.16.16.24.35.24.57s-.08.4-.24.56c-.16.16-.35.24-.58.24s-.4-.08-.56-.24M16.42,60.66c-.16-.16-.23-.35-.23-.56s.08-.41.23-.57c.16-.16.34-.23.56-.23s.42.08.57.23c.16.16.23.35.23.57s-.08.4-.23.56c-.16.16-.35.24-.57.24s-.4-.08-.56-.24M16.32,65.77c.27.27.64.4,1.1.4s.86-.15,1.14-.45c.27-.3.41-.72.41-1.26v-1.49h-.56c-.81,0-1.43.15-1.85.44-.42.29-.64.72-.64,1.28,0,.45.13.81.4,1.08M20.43,64.72c0,.54.1.91.3,1.13.2.22.56.32,1.06.32h.49v1.28h-.7c-.41,0-.77-.08-1.1-.24-.32-.16-.58-.39-.76-.68-.56.61-1.34.92-2.32.92-.59,0-1.11-.12-1.56-.35-.45-.23-.8-.56-1.04-.97-.25-.42-.37-.9-.37-1.45,0-.93.36-1.67,1.07-2.2.71-.53,1.69-.8,2.92-.8h2v3.04Z"/>
  <path class="cls-3" d="M24.67,69.74c-.16-.16-.23-.35-.23-.56s.08-.42.23-.57c.16-.16.35-.23.57-.23s.42.08.57.23c.16.16.23.35.23.57s-.08.4-.23.56c-.16.16-.35.24-.57.24s-.42-.08-.57-.24M22.4,69.74c-.16-.16-.23-.35-.23-.56s.08-.42.23-.57c.16-.16.35-.23.57-.23s.42.08.57.23c.16.16.23.35.23.57s-.08.4-.23.56c-.16.16-.35.24-.57.24s-.41-.08-.57-.24M24.8,67.46h-2.91v-1.28h1.96v-3.39c0-.24.17-.41.4-.5l1.07-.49v5.16c0,.28-.23.52-.52.52"/>
  <path class="cls-3" d="M29.73,62.88c-.49,0-.89.15-1.18.46-.29.31-.44.72-.44,1.24s.15.9.45,1.18c.3.28.74.42,1.32.42h1.44v-.96c0-1.56-.53-2.33-1.6-2.33M29.76,70.57c-.33,0-.65-.03-.97-.1-.32-.07-.58-.15-.78-.27l.39-1.14c.4.19.83.29,1.28.29.52,0,.92-.15,1.21-.45.29-.3.43-.71.43-1.24v-.21h-1.41c-1.05,0-1.86-.25-2.43-.76-.58-.51-.86-1.2-.86-2.07,0-.6.13-1.14.4-1.59.27-.45.64-.81,1.12-1.06.48-.25,1.04-.38,1.67-.38.96,0,1.7.31,2.21.93.51.62.77,1.53.77,2.71v1.69c0,2.42-1.01,3.63-3.04,3.63"/>
  <path class="cls-3" d="M36,63.34c-.29.31-.44.72-.44,1.24s.15.9.45,1.18c.3.28.74.42,1.32.42h1.44v-.96c0-1.56-.53-2.33-1.6-2.33-.49,0-.89.15-1.18.46M37.2,70.57c-.33,0-.65-.03-.97-.1-.32-.07-.58-.15-.78-.27l.39-1.14c.4.19.83.29,1.28.29.59,0,1.01-.16,1.26-.49.25-.33.38-.8.38-1.4h-1.41c-1.05,0-1.86-.25-2.43-.76s-.86-1.2-.86-2.07c0-.6.13-1.14.4-1.59.27-.45.64-.81,1.12-1.06.48-.25,1.04-.38,1.67-.38.96,0,1.7.31,2.21.93.51.62.77,1.53.77,2.71v.92h1.63v1.28h-1.66c-.13,2.08-1.13,3.11-3.01,3.11"/>
  <path class="cls-3" d="M43.8,60.63c-.16-.16-.25-.35-.25-.56s.08-.4.25-.56c.16-.16.36-.24.58-.24s.42.08.57.24c.16.16.23.35.23.56s-.08.4-.23.56c-.16.16-.35.24-.57.24s-.42-.08-.58-.24M45.1,64.45c0,.45.05.8.14,1.05.09.25.24.43.46.53.22.1.52.15.91.15h.66v1.28h-1.28c-.75,0-1.28-.29-1.6-.88-.19.33-.46.56-.8.69-.35.13-.88.19-1.6.19h-.51v-1.28h.65c.39,0,.69-.05.91-.16.22-.1.37-.28.46-.53.09-.25.13-.6.13-1.04v-1.67c0-.24.13-.41.4-.5l1.07-.49v2.66Z"/>
  <path class="cls-3" d="M49.79,67.46h-2.91v-1.28h1.96v-7.83c0-.24.14-.41.4-.5l1.07-.49v9.59c0,.28-.23.52-.52.52"/>
  <path class="cls-3" d="M52.85,67.46h-.95v-9.11c0-.24.15-.41.4-.5l1.07-.49v9.59c0,.28-.23.52-.52.52"/>
  <path class="cls-3" d="M62.29,60.66c-.16-.16-.23-.35-.23-.56s.08-.41.23-.57c.16-.16.34-.23.56-.23s.42.08.58.23c.16.16.24.35.24.57s-.08.4-.24.56c-.16.16-.35.24-.58.24s-.4-.08-.56-.24M60.02,60.66c-.16-.16-.23-.35-.23-.56s.08-.41.23-.57c.16-.16.34-.23.56-.23s.41.08.57.23c.16.16.23.35.23.57s-.08.4-.23.56c-.16.16-.35.24-.57.24s-.4-.08-.56-.24M59.92,65.77c.27.27.64.4,1.1.4s.86-.15,1.13-.45c.27-.3.41-.72.41-1.26v-1.49h-.56c-.81,0-1.43.15-1.85.44-.42.29-.64.72-.64,1.28,0,.45.13.81.4,1.08M64.03,64.72c0,.54.1.91.3,1.13.2.22.56.32,1.06.32h.49v1.28h-.7c-.41,0-.77-.08-1.1-.24-.32-.16-.58-.39-.76-.68-.56.61-1.34.92-2.32.92-.59,0-1.11-.12-1.56-.35-.45-.23-.8-.56-1.04-.97-.25-.42-.37-.9-.37-1.45,0-.93.36-1.67,1.07-2.2.71-.53,1.69-.8,2.92-.8h2v3.04Z"/>
  <path class="cls-3" d="M70.82,60.66c-.16-.16-.23-.35-.23-.56s.08-.42.23-.57c.16-.16.34-.23.56-.23s.42.08.58.23c.16.16.24.35.24.57s-.08.4-.24.56c-.16.16-.35.24-.58.24s-.4-.08-.56-.24M71.77,64.87c0-.62-.14-1.11-.42-1.46-.28-.35-.67-.53-1.16-.53s-.86.15-1.16.46c-.3.31-.45.7-.45,1.19s.15.87.45,1.18.68.47,1.14.47h1.61v-1.31ZM68.55,60.66c-.16-.16-.23-.35-.23-.56s.08-.42.23-.57c.16-.16.34-.23.56-.23s.42.08.57.23c.16.16.23.35.23.57s-.08.4-.23.56c-.16.16-.35.24-.57.24s-.4-.08-.56-.24M72.72,67.46h-7.23v-1.28h2.26c-.43-.38-.65-.93-.65-1.66,0-.55.13-1.05.4-1.48.27-.43.63-.78,1.1-1.03.46-.26.98-.38,1.56-.38s1.13.13,1.59.39c.46.26.83.62,1.09,1.08.26.46.4.99.4,1.58v2.27c0,.28-.23.52-.52.52"/>
  <path class="cls-3" d="M75.2,57.85l1.07-.49v8.82h1.97v1.28h-3.44v-9.11c0-.24.16-.41.4-.5"/>
  <path class="cls-3" d="M86.22,63.6c-.42-.4-1.01-.6-1.78-.6-.66,0-1.22.13-1.7.4-.48.27-.84.64-1.1,1.12-.25.48-.38,1.03-.38,1.65h5.58v-.71c0-.84-.21-1.46-.62-1.86M80.21,57.85l1.07-.49v5.85c.23-.43.64-.8,1.23-1.12.58-.31,1.3-.47,2.13-.47.45,0,.89.06,1.33.17.44.12.83.32,1.19.6.36.28.64.66.86,1.14.21.48.32,1.08.32,1.81v.83h1.75v1.28h-12.23v-1.28h1.96v-7.83c0-.24.14-.41.4-.5"/>
  <path class="cls-3" d="M93.32,64.41c0,.66.1,1.12.29,1.38.19.26.53.39,1.02.39h.84v1.28h-.78c-.57,0-1.02-.07-1.35-.21-.33-.14-.58-.36-.75-.67-.18.32-.43.55-.75.68-.32.13-.77.2-1.36.2h-.78v-1.28h.84c.48,0,.82-.13,1.02-.4.19-.26.29-.72.29-1.37v-6.06c0-.24.14-.39.4-.5l1.07-.49v7.06Z"/>
  <path class="cls-3" d="M97.99,67.46h-2.91v-1.28h1.96v-7.83c0-.24.15-.42.4-.5l1.07-.49v9.59c0,.28-.23.52-.52.52"/>
  <path class="cls-3" d="M134.92,70h1.56c.25,0,.44-.2.44-.44v-.39h-.93s0-.2.16-.3c.24-.16.77-.13.77-.13v-.46h-.31c-.53,0-.95.1-1.25.29-.3.19-.45.52-.45.99v.45Z"/>
  <path class="cls-3" d="M109.8,60.68c-.16-.16-.23-.35-.23-.56s.08-.42.23-.57c.16-.16.34-.23.56-.23s.42.08.58.23.24.35.24.57-.08.4-.24.56c-.16.16-.35.24-.58.24s-.4-.08-.56-.24M107.53,60.68c-.16-.16-.23-.35-.23-.56s.08-.42.23-.57c.16-.16.34-.23.56-.23s.42.08.57.23c.16.16.23.35.23.57s-.08.4-.23.56c-.16.16-.35.24-.57.24s-.4-.08-.56-.24M113.9,66.96c0,.29-.23.52-.52.52h-5.48c-.79,0-1.47-.14-2.05-.41-.58-.27-1.03-.66-1.35-1.16-.32-.5-.48-1.09-.48-1.76,0-.19.05-.41.09-.6.05-.21.24-.34.43-.39l1.1-.38s-.14,1.01-.14,1.34c0,.66.23,1.17.7,1.53.47.36,1.15.54,2.05.54h4.18v-3.39c0-.24.14-.41.4-.5l1.07-.49v5.15Z"/>
  <path class="cls-3" d="M116.44,67.48h-.95v-9.11c0-.24.18-.41.4-.5l1.07-.49v9.59c0,.28-.23.52-.52.52"/>
  <path class="cls-3" d="M120.29,68c0,.79-.22,1.41-.65,1.85-.44.45-1.03.67-1.78.67-.27,0-.54-.03-.82-.09-.28-.06-.52-.14-.71-.23l.38-1.12c.11.06.27.11.46.14.19.03.37.05.54.05.75,0,1.13-.38,1.13-1.14v-5.34c0-.24.17-.42.4-.5l1.07-.49v6.19Z"/>
  <path class="cls-3" d="M122.28,57.86l1.07-.49v8.82h1.97v1.28h-3.44v-9.11c0-.24.17-.41.4-.5"/>
  <path class="cls-3" d="M130.8,65.87c.25-.31.38-.73.38-1.25s-.13-.93-.38-1.25c-.25-.31-.62-.47-1.1-.47s-.84.16-1.1.47c-.25.31-.38.73-.38,1.25s.13.93.38,1.25c.25.31.62.47,1.1.47s.85-.16,1.1-.47M127.54,62.44c.55-.53,1.26-.8,2.15-.8s1.62.27,2.15.8c.53.53.8,1.27.8,2.21s-.26,1.64-.78,2.17c-.52.53-1.23.79-2.13.79-1,0-1.77-.31-2.3-.93-.18.3-.43.51-.76.63-.32.12-.69.18-1.11.18h-.64v-1.28h.43c.46,0,.8-.12,1.02-.35.22-.23.34-.64.34-1.21,0-.93.27-1.67.82-2.2"/>
  <path class="cls-3" d="M140.23,67.48h-6.29v-1.28h1.49v-3.39c0-.24.18-.41.4-.5l1.07-.5v4.39h2.39v-7.83c0-.24.19-.41.4-.5l1.07-.49v9.59c0,.28-.23.52-.52.52"/>
  <path class="cls-3" d="M143.41,67.48h-.95v-9.11c0-.24.17-.4.4-.5l1.07-.49v9.59c0,.28-.23.52-.52.52"/>
  <path class="cls-2" d="M131.66,14.69c-5.15-3.99-9.97-5.7-11.79-3.88-1.83,1.83-.11,6.65,3.88,11.79,1.08-1.39,2.33-2.81,3.72-4.2,1.39-1.39,2.81-2.63,4.2-3.72"/>
  <path class="cls-2" d="M131.66,30.52c5.15,3.99,9.97,5.7,11.79,3.88,1.83-1.83.11-6.65-3.88-11.79-1.08,1.39-2.33,2.81-3.72,4.2-1.39,1.39-2.81,2.63-4.2,3.72"/>
  <path class="cls-1" d="M123.74,22.61c-3.99,5.14-5.7,9.97-3.88,11.79,1.83,1.83,6.65.11,11.79-3.88-1.39-1.08-2.81-2.33-4.2-3.72-1.39-1.39-2.63-2.81-3.72-4.2"/>
  <path class="cls-1" d="M143.45,10.81c-1.83-1.83-6.65-.11-11.79,3.88,1.4,1.08,2.81,2.33,4.2,3.72,1.39,1.39,2.63,2.81,3.72,4.2,3.99-5.15,5.7-9.97,3.88-11.79"/>
  <path class="cls-3" d="M131.66,14.69c-1.39,1.08-2.81,2.33-4.2,3.72-1.39,1.39-2.63,2.81-3.72,4.2,1.08,1.39,2.33,2.81,3.72,4.2,1.39,1.39,2.81,2.63,4.2,3.72,1.39-1.08,2.81-2.33,4.2-3.72,1.39-1.39,2.63-2.81,3.72-4.2-1.08-1.39-2.33-2.81-3.72-4.2-1.39-1.39-2.81-2.63-4.2-3.72"/>
  <path class="cls-3" d="M14.29,46.88v-26.64h21.42l-1.26,4.12c-.27.89-.96,1.47-1.84,1.47h-11.96v6.3h12.85l-1.26,4.12c-.29.93-.96,1.47-1.84,1.47h-9.74v6.75h15.07l-1.26,4.12c-.29.94-.96,1.47-1.84,1.47h-15.13c-1.76,0-3.18-1.42-3.18-3.18"/>
  <path class="cls-3" d="M66.22,46.88v-26.64h21.42l-1.26,4.12c-.27.89-.96,1.47-1.84,1.47h-11.96v6.3h12.85l-1.26,4.12c-.29.93-.96,1.47-1.84,1.47h-9.74v6.75h15.07l-1.26,4.12c-.29.94-.96,1.47-1.84,1.47h-15.13c-1.76,0-3.18-1.42-3.18-3.18"/>
  <path class="cls-3" d="M56.68,48.5l-13.08-17.89v19.45h-6.35v-29.82h4.61c1.21,0,2.34.57,3.06,1.55l12.67,17.19v-18.73h6.35v29.82h-4.19c-1.21,0-2.35-.58-3.07-1.56"/>
  <path class="cls-3" d="M87.29,35.17c0-9.17,6.93-15.42,15.87-15.42,6.57,0,10.37,3.58,12.47,7.29l-3.83,1.88c-.88.43-1.92.17-2.54-.58-1.43-1.73-3.64-2.96-6.11-2.96-5.41,0-9.34,4.16-9.34,9.79s3.93,9.79,9.34,9.79c2.47,0,4.68-1.2,6.11-2.94.63-.76,1.67-1.03,2.56-.6l3.81,1.84c-2.15,3.71-5.9,7.33-12.47,7.33-8.94,0-15.87-6.26-15.87-15.42"/>
</svg>